<svg width="24" height="24" viewBox="0 0 24 24" fill="none" xmlns="http://www.w3.org/2000/svg">
<path d="M21.336 2.66409C21.5045 2.83284 21.5992 3.06159 21.5992 3.30009C21.5992 3.53859 21.5045 3.76734 21.336 3.93609L19.602 5.67129C20.2372 6.60357 20.5271 7.7283 20.4217 8.85147C20.3163 9.97463 19.8223 11.0258 19.0248 11.8237L18.6648 12.1837L18.6612 12.1873L18.2904 12.5581C18.0541 12.794 17.7339 12.9266 17.4 12.9266C17.0661 12.9266 16.7458 12.794 16.5096 12.5581L11.442 7.49049C11.325 7.37348 11.2322 7.23458 11.1688 7.0817C11.1055 6.92882 11.0729 6.76496 11.0729 6.59949C11.0729 6.43401 11.1055 6.27015 11.1688 6.11728C11.2322 5.9644 11.325 5.82549 11.442 5.70849L12.1752 4.97649C12.9735 4.1793 14.0248 3.6855 15.1481 3.58014C16.2713 3.47478 17.3962 3.76446 18.3288 4.39929L20.064 2.66409C20.2327 2.49555 20.4615 2.40088 20.7 2.40088C20.9385 2.40088 21.1672 2.49555 21.336 2.66409Z" fill="#CBC8EB"/>
<path d="M10.536 10.1641C10.7045 10.3328 10.7992 10.5616 10.7992 10.8001C10.7992 11.0386 10.7045 11.2673 10.536 11.4361L9.012 12.9625L11.04 14.9905L12.564 13.4641C12.647 13.3781 12.7463 13.3095 12.856 13.2623C12.9658 13.215 13.0839 13.1902 13.2034 13.1891C13.3229 13.188 13.4414 13.2107 13.5521 13.2559C13.6627 13.3011 13.7632 13.3679 13.8477 13.4523C13.9323 13.5368 13.9992 13.6372 14.0445 13.7478C14.0898 13.8584 14.1126 13.9769 14.1116 14.0964C14.1106 14.2159 14.0859 14.334 14.0388 14.4439C13.9916 14.5537 13.9231 14.653 13.8372 14.7361L12.306 16.2685C12.5867 16.6117 12.7298 17.047 12.7077 17.4898C12.6855 17.9326 12.4996 18.3514 12.186 18.6649L11.826 19.0249C11.0279 19.8225 9.97642 20.3165 8.85299 20.4217C7.72956 20.5268 6.60466 20.2365 5.67241 19.6009L3.936 21.3361C3.76539 21.4951 3.53974 21.5816 3.30658 21.5775C3.07342 21.5734 2.85095 21.4789 2.68606 21.314C2.52116 21.1491 2.42671 20.9267 2.4226 20.6935C2.41848 20.4604 2.50503 20.2347 2.664 20.0641L4.398 18.3289C3.76282 17.3966 3.47291 16.2719 3.57828 15.1487C3.68365 14.0255 4.1777 12.9744 4.9752 12.1765L5.3352 11.8165C5.64867 11.5029 6.06746 11.317 6.51029 11.2948C6.95311 11.2727 7.38838 11.4158 7.7316 11.6965L9.264 10.1641C9.43275 9.99555 9.6615 9.90088 9.9 9.90088C10.1385 9.90088 10.3673 9.99555 10.536 10.1641Z" fill="#CBC8EB"/>
</svg>
