<svg width="36" height="36" viewBox="0 0 36 36" fill="none" xmlns="http://www.w3.org/2000/svg">
<path d="M18 3C26.2845 3 33 9.7155 33 18C33 26.2845 26.2845 33 18 33C9.7155 33 3 26.2845 3 18C3 9.7155 9.7155 3 18 3ZM18 10.5C17.7281 10.5 17.4655 10.5985 17.2606 10.7772C17.0557 10.9558 16.9225 11.2027 16.8855 11.472L16.875 11.625V16.875H11.625C11.34 16.8751 11.0656 16.9834 10.8573 17.178C10.649 17.3726 10.5224 17.6389 10.503 17.9233C10.4835 18.2077 10.5728 18.4888 10.7526 18.7099C10.9325 18.9311 11.1896 19.0756 11.472 19.1145L11.625 19.125H16.875V24.375C16.8751 24.66 16.9834 24.9344 17.178 25.1427C17.3726 25.351 17.6389 25.4776 17.9233 25.497C18.2077 25.5165 18.4888 25.4272 18.7099 25.2474C18.9311 25.0675 19.0756 24.8104 19.1145 24.528L19.125 24.375V19.125H24.375C24.66 19.1249 24.9344 19.0166 25.1427 18.822C25.351 18.6274 25.4776 18.3611 25.497 18.0767C25.5165 17.7923 25.4272 17.5112 25.2474 17.2901C25.0675 17.0689 24.8104 16.9244 24.528 16.8855L24.375 16.875H19.125V11.625C19.125 11.3266 19.0065 11.0405 18.7955 10.8295C18.5845 10.6185 18.2984 10.5 18 10.5Z" fill="#7165E3"/>
</svg>
