<svg width="24" height="25" viewBox="0 0 24 25" fill="none" xmlns="http://www.w3.org/2000/svg">
<path d="M23.3555 10.4399L23.3536 10.4381L13.5626 0.647343C13.1452 0.229821 12.5903 0 12.0001 0C11.4099 0 10.8551 0.229821 10.4375 0.647343L0.65158 10.4331C0.648283 10.4364 0.644804 10.4399 0.641691 10.4432C-0.215329 11.3052 -0.213864 12.7037 0.645903 13.5634C1.0387 13.9564 1.55731 14.1839 2.11199 14.2079C2.1347 14.2101 2.15741 14.2112 2.1803 14.2112H2.57035V21.4163C2.57035 22.8423 3.73063 24.0024 5.15661 24.0024H8.9872C9.3756 24.0024 9.6904 23.6875 9.6904 23.2992V17.6502C9.6904 16.9996 10.2198 16.4704 10.8704 16.4704H13.1298C13.7805 16.4704 14.3097 16.9996 14.3097 17.6502V23.2992C14.3097 23.6875 14.6245 24.0024 15.0129 24.0024H18.8435C20.2696 24.0024 21.4297 22.8423 21.4297 21.4163V14.2112H21.7916C22.3816 14.2112 22.9365 13.9813 23.3542 13.5636C24.2149 12.7026 24.2152 11.3015 23.3555 10.4399Z" fill="#CBC8EB"/>
</svg>
