<svg width="22" height="22" viewBox="0 0 22 22" fill="none" xmlns="http://www.w3.org/2000/svg">
<path d="M10.752 3.09747C10.3811 3.09747 10.08 2.79642 10.08 2.42547V0.672C10.08 0.301056 10.3811 0 10.752 0C11.123 0 11.424 0.301056 11.424 0.672V2.42547C11.424 2.79642 11.123 3.09747 10.752 3.09747Z" fill="#7165E3"/>
<path d="M16.6396 5.5364C16.4676 5.5364 16.2955 5.47099 16.1647 5.33928C15.9022 5.07675 15.9022 4.65115 16.1647 4.38862L17.4048 3.14856C17.6673 2.88603 18.0929 2.88603 18.3555 3.14856C18.618 3.41108 18.618 3.83668 18.3555 4.09921L17.1154 5.33928C16.9837 5.47009 16.8116 5.5364 16.6396 5.5364Z" fill="#7165E3"/>
<path d="M20.832 11.4241H19.0786C18.7076 11.4241 18.4066 11.123 18.4066 10.7521C18.4066 10.3811 18.7076 10.0801 19.0786 10.0801H20.832C21.203 10.0801 21.504 10.3811 21.504 10.7521C21.504 11.123 21.203 11.4241 20.832 11.4241Z" fill="#7165E3"/>
<path d="M17.8797 18.5515C17.7076 18.5515 17.5356 18.4861 17.4048 18.3544L16.1647 17.1143C15.9022 16.8518 15.9022 16.4262 16.1647 16.1637C16.4273 15.9012 16.8529 15.9012 17.1154 16.1637L18.3555 17.4038C18.618 17.6663 18.618 18.0919 18.3555 18.3544C18.2237 18.4861 18.0517 18.5515 17.8797 18.5515Z" fill="#7165E3"/>
<path d="M3.62429 18.5515C3.45226 18.5515 3.28023 18.4861 3.14941 18.3544C2.88688 18.0919 2.88688 17.6663 3.14941 17.4038L4.38947 16.1637C4.652 15.9012 5.0776 15.9012 5.34013 16.1637C5.60266 16.4262 5.60266 16.8518 5.34013 17.1143L4.10007 18.3544C3.96835 18.4861 3.79632 18.5515 3.62429 18.5515Z" fill="#7165E3"/>
<path d="M2.42547 11.4241H0.672C0.301056 11.4241 0 11.123 0 10.7521C0 10.3811 0.301056 10.0801 0.672 10.0801H2.42547C2.79642 10.0801 3.09747 10.3811 3.09747 10.7521C3.09747 11.123 2.79642 11.4241 2.42547 11.4241Z" fill="#7165E3"/>
<path d="M4.86435 5.5364C4.69232 5.5364 4.52029 5.47099 4.38947 5.33928L3.14941 4.09921C2.88688 3.83668 2.88688 3.41108 3.14941 3.14856C3.41194 2.88603 3.83754 2.88603 4.10007 3.14856L5.34013 4.38862C5.60266 4.65115 5.60266 5.07675 5.34013 5.33928C5.20752 5.47009 5.03639 5.5364 4.86435 5.5364Z" fill="#7165E3"/>
<path d="M13.44 18.8159V19.9359C13.44 20.7961 12.7322 21.5039 11.872 21.5039H9.63203C8.87939 21.5039 8.06403 20.9305 8.06403 19.6761V18.8159H13.44Z" fill="#7165E3"/>
<path fill-rule="evenodd" clip-rule="evenodd" d="M9.40797 4.62358C11.2985 4.22038 13.2339 4.6863 14.7033 5.87798C16.1817 7.07862 17.024 8.8527 17.024 10.7522C17.024 12.6876 16.1459 14.4796 14.6317 15.6802C14.0134 16.1641 13.6102 16.7913 13.4848 17.4722V17.4812C13.4669 17.4722 13.4579 17.4722 13.44 17.4722H8.06397C8.04605 17.4722 8.01917 17.4722 8.00125 17.4812V17.4722C7.87581 16.7644 7.50845 16.1551 6.97981 15.7609C5.02653 14.2825 4.11261 11.8633 4.61437 9.42614C5.10717 7.05174 7.03357 5.11638 9.40797 4.62358ZM13.44 10.5282C13.44 10.8956 13.7446 11.2002 14.112 11.2002C14.4793 11.2002 14.784 10.8956 14.784 10.5282C14.784 8.43158 13.0726 6.72022 10.976 6.72022C10.6086 6.72022 10.304 7.02486 10.304 7.39222C10.304 7.75958 10.6086 8.06422 10.976 8.06422C12.3379 8.06422 13.44 9.1663 13.44 10.5282Z" fill="#7165E3"/>
<path d="M8.0013 17.4718H8.06402C8.0461 17.4718 8.01922 17.4718 8.0013 17.4808V17.4718Z" fill="#7165E3"/>
<path d="M13.4848 17.4718V17.4808C13.4669 17.4718 13.4579 17.4718 13.44 17.4718H13.4848Z" fill="#7165E3"/>
</svg>
